<?xml version="1.0" encoding="utf-8"?>
<!-- Generator: Adobe Illustrator 19.0.0, SVG Export Plug-In . SVG Version: 6.00 Build 0)  -->
<svg version="1.1" id="Layer_1" xmlns="http://www.w3.org/2000/svg" xmlns:xlink="http://www.w3.org/1999/xlink" x="0px" y="0px"
	 width="288px" height="288px" viewBox="-355 357 288 288" style="enable-background:new -355 357 288 288;" xml:space="preserve">
<style type="text/css">
	.st0{fill:#4C4D4F;}
</style>
<g>
	<path class="st0" d="M-183.4,559.7l-110.3-0.2c-11.9,0-13.7-20.3,0.1-20.3l104.8,0.4l52.5-110.3c2-4.5,5.6-9,9.6-10.7
		c1.1-0.5,2.6-0.8,3.6-0.8h33.9c11.9,0,13.3,20.1-0.5,20.1h-30.4l-47.7,107.5C-170.9,552.7-173.7,559.8-183.4,559.7L-183.4,559.7z"
		/>
	<path class="st0" d="M-221.3,590.2c0-12.7,10.3-22.9,22.9-22.9c12.7,0,22.9,10.3,22.9,22.9c0,12.7-10.3,22.9-22.9,22.9
		C-211.1,613.2-221.3,602.9-221.3,590.2L-221.3,590.2z"/>
	<path class="st0" d="M-299.3,590.2c0-12.7,10.3-22.9,22.9-22.9c12.7,0,22.9,10.3,22.9,22.9c0,12.7-10.3,22.9-22.9,22.9
		C-289,613.2-299.3,602.9-299.3,590.2L-299.3,590.2z"/>
	<polygon class="st0" points="-160.7,452.2 -195.9,529.4 -306.6,529.4 -341.9,452.2 	"/>
</g>
</svg>
